<svg xmlns="http://www.w3.org/2000/svg" xmlns:xlink="http://www.w3.org/1999/xlink" contentStyleType="text/css" height="766.5625px" preserveAspectRatio="none" style="width:1404px;height:766px;background:#FFFFFF;" version="1.1" viewBox="0 0 1404 766" width="1404.7917px" zoomAndPan="magnify"><defs/><g><rect fill="#EBF5FF" height="753.0363" rx="3.4375" ry="3.4375" style="stroke:#181818;stroke-width:0.5729;" width="533.3457" x="121.5848" y="6.875"/><text fill="#000000" font-family="sans-serif" font-size="14.8958" font-weight="bold" lengthAdjust="spacing" textLength="131.6259" x="322.4447" y="22.3382">Structure imagerie</text><rect fill="#F7F7F7" height="753.0363" rx="3.4375" ry="3.4375" style="stroke:#181818;stroke-width:0.5729;" width="375.6235" x="915.5488" y="6.875"/><text fill="#000000" font-family="sans-serif" font-size="14.8958" font-weight="bold" lengthAdjust="spacing" textLength="213.5457" x="996.5877" y="22.3382">Environnement T&#233;l&#233;radiologie</text><line style="stroke:#181818;stroke-width:0.5729;stroke-dasharray:5.0,5.0;" x1="60.2195" x2="60.2195" y1="119.1219" y2="664.1089"/><line style="stroke:#181818;stroke-width:0.5729;stroke-dasharray:5.0,5.0;" x1="154.5767" x2="154.5767" y1="119.1219" y2="664.1089"/><line style="stroke:#181818;stroke-width:0.5729;stroke-dasharray:5.0,5.0;" x1="257.6301" x2="257.6301" y1="119.1219" y2="664.1089"/><rect fill="#FFFFFF" height="108.9168" style="stroke:#181818;stroke-width:1.1458;" width="11.4583" x="251.9009" y="165.3581"/><line style="stroke:#181818;stroke-width:0.5729;stroke-dasharray:5.0,5.0;" x1="382.0828" x2="382.0828" y1="119.1219" y2="664.1089"/><rect fill="#FFFFFF" height="128.7988" style="stroke:#181818;stroke-width:1.1458;" width="11.4583" x="376.3537" y="165.3581"/><line style="stroke:#181818;stroke-width:0.5729;stroke-dasharray:5.0,5.0;" x1="600.3098" x2="600.3098" y1="119.1219" y2="664.1089"/><rect fill="#FFFFFF" height="251.8685" style="stroke:#181818;stroke-width:1.1458;" width="11.4583" x="594.5806" y="165.3581"/><rect fill="#FFFFFF" height="69.5557" style="stroke:#181818;stroke-width:1.1458;" width="11.4583" x="594.5806" y="573.9282"/><line style="stroke:#181818;stroke-width:0.5729;stroke-dasharray:5.0,5.0;" x1="1016.9903" x2="1016.9903" y1="119.1219" y2="664.1089"/><rect fill="#FFFFFF" height="226.2573" style="stroke:#181818;stroke-width:1.1458;" width="11.4583" x="1011.2611" y="382.4487"/><line style="stroke:#181818;stroke-width:0.5729;stroke-dasharray:5.0,5.0;" x1="1238.1244" x2="1238.1244" y1="119.1219" y2="664.1089"/><rect fill="#FFFFFF" height="187.6392" style="stroke:#181818;stroke-width:1.1458;" width="11.4583" x="1232.3952" y="470.7406"/><rect fill="#A5E1F0" height="36.2191" rx="3.4375" ry="3.4375" style="stroke:#181818;stroke-width:0.5729;" width="51.6889" x="34.375" y="81.757"/><text fill="#000000" font-family="sans-serif" font-size="16.0417" lengthAdjust="spacing" textLength="35.6473" x="42.3958" y="106.4305">DMP</text><text fill="#000000" font-family="sans-serif" font-size="16.0417" lengthAdjust="spacing" textLength="49.9422" x="126.1681" y="115.5971">Patient</text><ellipse cx="154.5767" cy="39.9341" fill="#FFEFE0" rx="9.1667" ry="9.1667" style="stroke:#181818;stroke-width:0.5729;"/><path d="M154.5767,49.1007 L154.5767,80.0382 M139.6809,58.2674 L169.4726,58.2674 M154.5767,80.0382 L139.6809,97.2257 M154.5767,80.0382 L169.4726,97.2257 " fill="none" style="stroke:#181818;stroke-width:0.5729;"/><text fill="#000000" font-family="sans-serif" font-size="16.0417" lengthAdjust="spacing" textLength="119.4979" x="194.4437" y="115.5971">PS Responsable</text><ellipse cx="257.6301" cy="39.9341" fill="#FFEFE0" rx="9.1667" ry="9.1667" style="stroke:#181818;stroke-width:0.5729;"/><path d="M257.6301,49.1007 L257.6301,80.0382 M242.7343,58.2674 L272.5259,58.2674 M257.6301,80.0382 L242.7343,97.2257 M257.6301,80.0382 L272.5259,97.2257 " fill="none" style="stroke:#181818;stroke-width:0.5729;"/><text fill="#000000" font-family="sans-serif" font-size="16.0417" lengthAdjust="spacing" textLength="92.7409" x="332.2749" y="115.5971">Manipulateur</text><ellipse cx="382.0828" cy="39.9341" fill="#FFEFE0" rx="9.1667" ry="9.1667" style="stroke:#181818;stroke-width:0.5729;"/><path d="M382.0828,49.1007 L382.0828,80.0382 M367.187,58.2674 L396.9787,58.2674 M382.0828,80.0382 L367.187,97.2257 M382.0828,80.0382 L396.9787,97.2257 " fill="none" style="stroke:#181818;stroke-width:0.5729;"/><rect fill="#DFF2D6" height="36.2191" rx="3.4375" ry="3.4375" style="stroke:#181818;stroke-width:0.5729;" width="42.783" x="578.9183" y="81.757"/><text fill="#000000" font-family="sans-serif" font-size="16.0417" lengthAdjust="spacing" textLength="26.7413" x="586.9391" y="106.4305">RIS</text><rect fill="#FFF7CC" height="36.2191" rx="3.4375" ry="3.4375" style="stroke:#181818;stroke-width:0.5729;" width="136.4247" x="948.778" y="81.757"/><text fill="#000000" font-family="sans-serif" font-size="16.0417" lengthAdjust="spacing" textLength="120.383" x="956.7988" y="106.4305">SI T&#233;l&#233;radiologie</text><text fill="#000000" font-family="sans-serif" font-size="16.0417" lengthAdjust="spacing" textLength="90.0542" x="1189.6598" y="115.5971">PS Effecteur</text><ellipse cx="1238.1244" cy="39.9341" fill="#FFEFE0" rx="9.1667" ry="9.1667" style="stroke:#181818;stroke-width:0.5729;"/><path d="M1238.1244,49.1007 L1238.1244,80.0382 M1223.2286,58.2674 L1253.0202,58.2674 M1238.1244,80.0382 L1223.2286,97.2257 M1238.1244,80.0382 L1253.0202,97.2257 " fill="none" style="stroke:#181818;stroke-width:0.5729;"/><rect fill="#A5E1F0" height="36.2191" rx="3.4375" ry="3.4375" style="stroke:#181818;stroke-width:0.5729;" width="51.6889" x="34.375" y="664.1089"/><text fill="#000000" font-family="sans-serif" font-size="16.0417" lengthAdjust="spacing" textLength="35.6473" x="42.3958" y="688.7823">DMP</text><text fill="#000000" font-family="sans-serif" font-size="16.0417" lengthAdjust="spacing" textLength="49.9422" x="126.1681" y="749.5115">Patient</text><ellipse cx="154.5767" cy="673.8485" fill="#FFEFE0" rx="9.1667" ry="9.1667" style="stroke:#181818;stroke-width:0.5729;"/><path d="M154.5767,683.0151 L154.5767,713.9526 M139.6809,692.1818 L169.4726,692.1818 M154.5767,713.9526 L139.6809,731.1401 M154.5767,713.9526 L169.4726,731.1401 " fill="none" style="stroke:#181818;stroke-width:0.5729;"/><text fill="#000000" font-family="sans-serif" font-size="16.0417" lengthAdjust="spacing" textLength="119.4979" x="194.4437" y="749.5115">PS Responsable</text><ellipse cx="257.6301" cy="673.8485" fill="#FFEFE0" rx="9.1667" ry="9.1667" style="stroke:#181818;stroke-width:0.5729;"/><path d="M257.6301,683.0151 L257.6301,713.9526 M242.7343,692.1818 L272.5259,692.1818 M257.6301,713.9526 L242.7343,731.1401 M257.6301,713.9526 L272.5259,731.1401 " fill="none" style="stroke:#181818;stroke-width:0.5729;"/><text fill="#000000" font-family="sans-serif" font-size="16.0417" lengthAdjust="spacing" textLength="92.7409" x="332.2749" y="749.5115">Manipulateur</text><ellipse cx="382.0828" cy="673.8485" fill="#FFEFE0" rx="9.1667" ry="9.1667" style="stroke:#181818;stroke-width:0.5729;"/><path d="M382.0828,683.0151 L382.0828,713.9526 M367.187,692.1818 L396.9787,692.1818 M382.0828,713.9526 L367.187,731.1401 M382.0828,713.9526 L396.9787,731.1401 " fill="none" style="stroke:#181818;stroke-width:0.5729;"/><rect fill="#DFF2D6" height="36.2191" rx="3.4375" ry="3.4375" style="stroke:#181818;stroke-width:0.5729;" width="42.783" x="578.9183" y="664.1089"/><text fill="#000000" font-family="sans-serif" font-size="16.0417" lengthAdjust="spacing" textLength="26.7413" x="586.9391" y="688.7823">RIS</text><rect fill="#FFF7CC" height="36.2191" rx="3.4375" ry="3.4375" style="stroke:#181818;stroke-width:0.5729;" width="136.4247" x="948.778" y="664.1089"/><text fill="#000000" font-family="sans-serif" font-size="16.0417" lengthAdjust="spacing" textLength="120.383" x="956.7988" y="688.7823">SI T&#233;l&#233;radiologie</text><text fill="#000000" font-family="sans-serif" font-size="16.0417" lengthAdjust="spacing" textLength="90.0542" x="1189.6598" y="749.5115">PS Effecteur</text><ellipse cx="1238.1244" cy="673.8485" fill="#FFEFE0" rx="9.1667" ry="9.1667" style="stroke:#181818;stroke-width:0.5729;"/><path d="M1238.1244,683.0151 L1238.1244,713.9526 M1223.2286,692.1818 L1253.0202,692.1818 M1238.1244,713.9526 L1223.2286,731.1401 M1238.1244,713.9526 L1253.0202,731.1401 " fill="none" style="stroke:#181818;stroke-width:0.5729;"/><path d="M237.0051,132.8719 L531.4714,132.8719 L531.4714,142.4414 L520.0131,153.8997 L233.5676,153.8997 L233.5676,136.3094 A3.4375,3.4375 0 0 1 237.0051,132.8719 " fill="#EEEEEE" style="stroke:#000000;stroke-width:1.7188;"/><rect fill="none" height="170.4517" rx="3.4375" ry="3.4375" style="stroke:#000000;stroke-width:1.7188;" width="390.8047" x="233.5676" y="132.8719"/><text fill="#000000" font-family="sans-serif" font-size="14.8958" font-weight="bold" lengthAdjust="spacing" textLength="246.3413" x="250.7551" y="149.4809">R&#233;alisation de l'examen d'imagerie</text><polygon fill="#333333" points="580.8306,205.1221,592.289,209.7054,580.8306,214.2887,585.414,209.7054" style="stroke:#333333;stroke-width:1.1458;"/><line style="stroke:#333333;stroke-width:1.1458;" x1="387.812" x2="587.7056" y1="209.7054" y2="209.7054"/><text fill="#000000" font-family="sans-serif" font-size="14.8958" lengthAdjust="spacing" textLength="82.8072" x="406.7308" y="185.4046">Consultation</text><text fill="#000000" font-family="sans-serif" font-size="14.8958" lengthAdjust="spacing" textLength="4.1385" x="489.538" y="185.4046">&#160;</text><text fill="#000000" font-family="sans-serif" font-size="14.8958" lengthAdjust="spacing" textLength="16.5687" x="493.6765" y="185.4046">du</text><text fill="#000000" font-family="sans-serif" font-size="14.8958" lengthAdjust="spacing" textLength="4.1385" x="510.2452" y="185.4046">&#160;</text><text fill="#000000" font-family="sans-serif" font-size="14.8958" lengthAdjust="spacing" textLength="61.278" x="514.3838" y="185.4046">protocole</text><text fill="#000000" font-family="sans-serif" font-size="14.8958" lengthAdjust="spacing" textLength="68.2532" x="457.0697" y="204.1407">d'imagerie</text><line style="stroke:#333333;stroke-width:1.1458;" x1="387.812" x2="435.937" y1="244.4832" y2="244.4832"/><line style="stroke:#333333;stroke-width:1.1458;" x1="435.937" x2="435.937" y1="244.4832" y2="259.3791"/><line style="stroke:#333333;stroke-width:1.1458;" x1="388.9578" x2="435.937" y1="259.3791" y2="259.3791"/><polygon fill="#333333" points="400.4162,254.7957,388.9578,259.3791,400.4162,263.9624,395.8328,259.3791" style="stroke:#333333;stroke-width:1.1458;"/><text fill="#000000" font-family="sans-serif" font-size="14.8958" lengthAdjust="spacing" textLength="73.6936" x="395.8328" y="238.9186">R&#233;alisation</text><text fill="#000000" font-family="sans-serif" font-size="14.8958" lengthAdjust="spacing" textLength="4.1385" x="469.5265" y="238.9186">&#160;</text><text fill="#000000" font-family="sans-serif" font-size="14.8958" lengthAdjust="spacing" textLength="16.5687" x="473.665" y="238.9186">de</text><text fill="#000000" font-family="sans-serif" font-size="14.8958" lengthAdjust="spacing" textLength="4.1385" x="490.2337" y="238.9186">&#160;</text><text fill="#000000" font-family="sans-serif" font-size="14.8958" lengthAdjust="spacing" textLength="59.1469" x="494.3723" y="238.9186">l'examen</text><polygon fill="#333333" points="580.8306,289.5736,592.289,294.1569,580.8306,298.7402,585.414,294.1569" style="stroke:#333333;stroke-width:1.1458;"/><line style="stroke:#333333;stroke-width:1.1458;" x1="387.812" x2="587.7056" y1="294.1569" y2="294.1569"/><text fill="#000000" font-family="sans-serif" font-size="14.8958" lengthAdjust="spacing" textLength="101.0051" x="398.6974" y="288.5922">Enregistrement</text><text fill="#000000" font-family="sans-serif" font-size="14.8958" lengthAdjust="spacing" textLength="4.1385" x="499.7025" y="288.5922">&#160;</text><text fill="#000000" font-family="sans-serif" font-size="14.8958" lengthAdjust="spacing" textLength="16.5687" x="503.841" y="288.5922">de</text><text fill="#000000" font-family="sans-serif" font-size="14.8958" lengthAdjust="spacing" textLength="4.1385" x="520.4097" y="288.5922">&#160;</text><text fill="#000000" font-family="sans-serif" font-size="14.8958" lengthAdjust="spacing" textLength="59.1469" x="524.5483" y="288.5922">l'examen</text><polygon fill="#333333" points="997.5111,377.8654,1008.9695,382.4487,997.5111,387.0321,1002.0945,382.4487" style="stroke:#333333;stroke-width:1.1458;"/><line style="stroke:#333333;stroke-width:1.1458;" x1="606.039" x2="1004.3861" y1="382.4487" y2="382.4487"/><text fill="#000000" font-family="sans-serif" font-size="14.8958" font-weight="bold" lengthAdjust="spacing" textLength="47.1895" x="785.0553" y="339.4117">&#171;Flux&#187;</text><text fill="#000000" font-family="sans-serif" font-size="14.8958" font-weight="bold" lengthAdjust="spacing" textLength="96.852" x="616.9244" y="358.1479">Transmission</text><text fill="#000000" font-family="sans-serif" font-size="14.8958" font-weight="bold" lengthAdjust="spacing" textLength="4.1385" x="713.7764" y="358.1479">&#160;</text><text fill="#000000" font-family="sans-serif" font-size="14.8958" font-weight="bold" lengthAdjust="spacing" textLength="87.7385" x="717.9149" y="358.1479">compl&#233;ment</text><text fill="#000000" font-family="sans-serif" font-size="14.8958" font-weight="bold" lengthAdjust="spacing" textLength="4.1385" x="805.6534" y="358.1479">&#160;</text><text fill="#000000" font-family="sans-serif" font-size="14.8958" font-weight="bold" lengthAdjust="spacing" textLength="94.5609" x="809.792" y="358.1479">d'information</text><text fill="#000000" font-family="sans-serif" font-size="14.8958" font-weight="bold" lengthAdjust="spacing" textLength="4.1385" x="904.3529" y="358.1479">&#160;</text><text fill="#000000" font-family="sans-serif" font-size="14.8958" font-weight="bold" lengthAdjust="spacing" textLength="91.8843" x="908.4914" y="358.1479">post-examen</text><text fill="#000000" font-family="sans-serif" font-size="14.8958" lengthAdjust="spacing" textLength="43.0583" x="699.8261" y="376.8841">HL7v2</text><text fill="#000000" font-family="sans-serif" font-size="14.8958" lengthAdjust="spacing" textLength="4.1385" x="742.8844" y="376.8841">&#160;</text><text fill="#000000" font-family="sans-serif" font-size="14.8958" lengthAdjust="spacing" textLength="4.9604" x="747.0229" y="376.8841">-</text><text fill="#000000" font-family="sans-serif" font-size="14.8958" lengthAdjust="spacing" textLength="4.1385" x="751.9833" y="376.8841">&#160;</text><text fill="#000000" font-family="sans-serif" font-size="14.8958" lengthAdjust="spacing" textLength="63.2782" x="756.1219" y="376.8841">OMI^O23</text><text fill="#000000" font-family="sans-serif" font-size="14.8958" lengthAdjust="spacing" textLength="4.1385" x="819.4001" y="376.8841">&#160;</text><text fill="#000000" font-family="sans-serif" font-size="14.8958" lengthAdjust="spacing" textLength="51.3063" x="823.5386" y="376.8841">(ORC-1</text><text fill="#000000" font-family="sans-serif" font-size="14.8958" lengthAdjust="spacing" textLength="4.1385" x="874.8449" y="376.8841">&#160;</text><text fill="#000000" font-family="sans-serif" font-size="14.8958" lengthAdjust="spacing" textLength="8.6989" x="878.9834" y="376.8841">=</text><text fill="#000000" font-family="sans-serif" font-size="14.8958" lengthAdjust="spacing" textLength="4.1385" x="887.6823" y="376.8841">&#160;</text><text fill="#000000" font-family="sans-serif" font-size="14.8958" lengthAdjust="spacing" textLength="25.6531" x="891.8209" y="376.8841">SR)</text><polygon fill="#808080" points="618.6431,412.6432,607.1848,417.2266,618.6431,421.8099,614.0598,417.2266" style="stroke:#808080;stroke-width:1.1458;"/><line style="stroke:#808080;stroke-width:1.1458;stroke-dasharray:2.0,2.0;" x1="611.7681" x2="1010.1153" y1="417.2266" y2="417.2266"/><text fill="#000000" font-family="sans-serif" font-size="14.8958" lengthAdjust="spacing" textLength="113.4353" x="729.5887" y="411.6619">Acknowledgment</text><text fill="#000000" font-family="sans-serif" font-size="14.8958" lengthAdjust="spacing" textLength="4.1385" x="843.0239" y="411.6619">&#160;</text><text fill="#000000" font-family="sans-serif" font-size="14.8958" lengthAdjust="spacing" textLength="40.549" x="847.1625" y="411.6619">(ACK)</text><polygon fill="#333333" points="1035.3236,466.1572,1023.8653,470.7406,1035.3236,475.3239,1030.7403,470.7406" style="stroke:#333333;stroke-width:1.1458;"/><line style="stroke:#333333;stroke-width:1.1458;" x1="1028.4486" x2="1231.2494" y1="470.7406" y2="470.7406"/><text fill="#000000" font-family="sans-serif" font-size="14.8958" lengthAdjust="spacing" textLength="82.8072" x="1054.2746" y="446.4397">Consultation</text><text fill="#000000" font-family="sans-serif" font-size="14.8958" lengthAdjust="spacing" textLength="4.1385" x="1137.0818" y="446.4397">&#160;</text><text fill="#000000" font-family="sans-serif" font-size="14.8958" lengthAdjust="spacing" textLength="24.0166" x="1141.2203" y="446.4397">des</text><text fill="#000000" font-family="sans-serif" font-size="14.8958" lengthAdjust="spacing" textLength="4.1385" x="1165.237" y="446.4397">&#160;</text><text fill="#000000" font-family="sans-serif" font-size="14.8958" lengthAdjust="spacing" textLength="31.4645" x="1169.3755" y="446.4397">infos</text><text fill="#000000" font-family="sans-serif" font-size="14.8958" lengthAdjust="spacing" textLength="113.4207" x="1070.847" y="465.1759">compl&#233;mentaires</text><line style="stroke:#333333;stroke-width:1.1458;" x1="1243.8536" x2="1291.9786" y1="524.2546" y2="524.2546"/><line style="stroke:#333333;stroke-width:1.1458;" x1="1291.9786" x2="1291.9786" y1="524.2546" y2="539.1504"/><line style="stroke:#333333;stroke-width:1.1458;" x1="1244.9994" x2="1291.9786" y1="539.1504" y2="539.1504"/><polygon fill="#333333" points="1256.4577,534.5671,1244.9994,539.1504,1256.4577,543.7337,1251.8744,539.1504" style="stroke:#333333;stroke-width:1.1458;"/><text fill="#000000" font-family="sans-serif" font-size="14.8958" lengthAdjust="spacing" textLength="67.0749" x="1251.8744" y="499.9537">R&#233;daction</text><text fill="#000000" font-family="sans-serif" font-size="14.8958" lengthAdjust="spacing" textLength="4.1385" x="1318.9493" y="499.9537">&#160;</text><text fill="#000000" font-family="sans-serif" font-size="14.8958" lengthAdjust="spacing" textLength="16.5687" x="1323.0878" y="499.9537">du</text><text fill="#000000" font-family="sans-serif" font-size="14.8958" lengthAdjust="spacing" textLength="4.1385" x="1339.6565" y="499.9537">&#160;</text><text fill="#000000" font-family="sans-serif" font-size="14.8958" lengthAdjust="spacing" textLength="53.8083" x="1343.7951" y="499.9537">compte-</text><text fill="#000000" font-family="sans-serif" font-size="14.8958" lengthAdjust="spacing" textLength="38.0978" x="1269.4941" y="518.6899">rendu</text><text fill="#000000" font-family="sans-serif" font-size="14.8958" lengthAdjust="spacing" textLength="4.1385" x="1307.5919" y="518.6899">&#160;</text><text fill="#000000" font-family="sans-serif" font-size="14.8958" lengthAdjust="spacing" textLength="68.2532" x="1311.7305" y="518.6899">d'imagerie</text><polygon fill="#333333" points="1035.3236,569.3449,1023.8653,573.9282,1035.3236,578.5116,1030.7403,573.9282" style="stroke:#333333;stroke-width:1.1458;"/><line style="stroke:#333333;stroke-width:1.1458;" x1="1028.4486" x2="1231.2494" y1="573.9282" y2="573.9282"/><text fill="#000000" font-family="sans-serif" font-size="14.8958" lengthAdjust="spacing" textLength="65.4238" x="1036.4695" y="568.3635">Validation</text><text fill="#000000" font-family="sans-serif" font-size="14.8958" lengthAdjust="spacing" textLength="4.1385" x="1101.8933" y="568.3635">&#160;</text><text fill="#000000" font-family="sans-serif" font-size="14.8958" lengthAdjust="spacing" textLength="16.5687" x="1106.0319" y="568.3635">du</text><text fill="#000000" font-family="sans-serif" font-size="14.8958" lengthAdjust="spacing" textLength="4.1385" x="1122.6006" y="568.3635">&#160;</text><text fill="#000000" font-family="sans-serif" font-size="14.8958" lengthAdjust="spacing" textLength="91.9061" x="1126.7391" y="568.3635">compte-rendu</text><polygon fill="#333333" points="618.6431,569.3449,607.1848,573.9282,618.6431,578.5116,614.0598,573.9282" style="stroke:#333333;stroke-width:1.1458;"/><line style="stroke:#333333;stroke-width:1.1458;" x1="611.7681" x2="1010.1153" y1="573.9282" y2="573.9282"/><text fill="#000000" font-family="sans-serif" font-size="14.8958" lengthAdjust="spacing" textLength="88.5677" x="669.7944" y="568.3635">Transmission</text><text fill="#000000" font-family="sans-serif" font-size="14.8958" lengthAdjust="spacing" textLength="4.1385" x="758.3621" y="568.3635">&#160;</text><text fill="#000000" font-family="sans-serif" font-size="14.8958" lengthAdjust="spacing" textLength="16.5687" x="762.5006" y="568.3635">du</text><text fill="#000000" font-family="sans-serif" font-size="14.8958" lengthAdjust="spacing" textLength="4.1385" x="779.0693" y="568.3635">&#160;</text><text fill="#000000" font-family="sans-serif" font-size="14.8958" lengthAdjust="spacing" textLength="91.9061" x="783.2079" y="568.3635">compte-rendu</text><text fill="#000000" font-family="sans-serif" font-size="14.8958" lengthAdjust="spacing" textLength="4.1385" x="875.114" y="568.3635">&#160;</text><text fill="#000000" font-family="sans-serif" font-size="14.8958" lengthAdjust="spacing" textLength="68.2532" x="879.2525" y="568.3635">d'imagerie</text><polygon fill="#808080" points="997.5111,604.1227,1008.9695,608.7061,997.5111,613.2894,1002.0945,608.7061" style="stroke:#808080;stroke-width:1.1458;"/><line style="stroke:#808080;stroke-width:1.1458;stroke-dasharray:2.0,2.0;" x1="606.039" x2="1004.3861" y1="608.7061" y2="608.7061"/><text fill="#000000" font-family="sans-serif" font-size="14.8958" lengthAdjust="spacing" textLength="113.4353" x="729.5887" y="603.1414">Acknowledgment</text><text fill="#000000" font-family="sans-serif" font-size="14.8958" lengthAdjust="spacing" textLength="4.1385" x="843.0239" y="603.1414">&#160;</text><text fill="#000000" font-family="sans-serif" font-size="14.8958" lengthAdjust="spacing" textLength="40.549" x="847.1625" y="603.1414">(ACK)</text><polygon fill="#333333" points="72.8236,638.9006,61.3653,643.4839,72.8236,648.0672,68.2403,643.4839" style="stroke:#333333;stroke-width:1.1458;"/><line style="stroke:#333333;stroke-width:1.1458;" x1="65.9486" x2="593.4348" y1="643.4839" y2="643.4839"/><text fill="#000000" font-family="sans-serif" font-size="14.8958" lengthAdjust="spacing" textLength="72.8718" x="196.3924" y="637.9192">Publication</text><text fill="#000000" font-family="sans-serif" font-size="14.8958" lengthAdjust="spacing" textLength="4.1385" x="269.2641" y="637.9192">&#160;</text><text fill="#000000" font-family="sans-serif" font-size="14.8958" lengthAdjust="spacing" textLength="16.5687" x="273.4027" y="637.9192">du</text><text fill="#000000" font-family="sans-serif" font-size="14.8958" lengthAdjust="spacing" textLength="4.1385" x="289.9714" y="637.9192">&#160;</text><text fill="#000000" font-family="sans-serif" font-size="14.8958" lengthAdjust="spacing" textLength="91.9061" x="294.1099" y="637.9192">compte-rendu</text><text fill="#000000" font-family="sans-serif" font-size="14.8958" lengthAdjust="spacing" textLength="4.1385" x="386.016" y="637.9192">&#160;</text><text fill="#000000" font-family="sans-serif" font-size="14.8958" lengthAdjust="spacing" textLength="68.2532" x="390.1546" y="637.9192">d'imagerie</text><!--SRC=[ZLJXRjis4FwlfxZPm98OC62dI3CONO3CiR6W3M9OHVyq6t0MpoeHYjH8AhRpHdcElDYEbEtGthfE0cnH_Exkk-yxyQVQObaXU3BFu6r3MNO2kTye6a5XgXeB3subAuMQ7A0MK2X2InOKRapZC_SeTOqMAn2rXE5maBovjjQinaOP2zrtyKesvwRHOcoivbpla_TSKJv9l_aDYyVIjg2OOVeBtzC4kVW78bu98gU_6j85tP5pMDAragMkI7ie-8Sij_efTW5-HVZem1km99g2u9knyjbeZmfMKlXliNLPrTOy4MDGu48gPZdY7FrT41Vrif0rSWN7qabTnhWQXU3d25rPh44PtgbQKgnguqs578bARIAeSGIEAJ17EAqQvMLVIKrd1nKKBaYvf5ktxNRs1igtBCulKb-IBBEM6WEI_GhNMyLo-Kmm70m6MLgvStCtwm0w45KDNRoWuNAmN6OBiuPEpaDK-COIgyK9hAGET6cnl5ZobR6vR5Hdnjso0p57tJu7zoRJoM0FoM5EhZRQuK9HH5OaMF_rCV8EjQmRXPuQs-B2YptgWFZyDeyGAnrqRwRJyvlt6R53JBsbFz5FqXgjAOx9vzSNzVfYKKWUi3AsChqCzs7M_FPVaA4r9XMdyd8yJlgQB9TKxDbop9xhZagMXRckOVxwWaewLiXe40JgXDR8p42SxDJDulV2pOUUtXPHWsJPIfS1Nwqy_QiGC88nAym3jYtH0CEyAOoY1vqKEOYB3wFlaejWGV-ZzaHRAgNpjbNxltB4TbWUbYPunnc2k2FezJvycAfcVNNLwpteNk-pHUqgwLmW5GumTgLDVYBrqjYgfLiRv_jjgH3t-wVBftF-xkxlRl-yFty7f_VpSNy8lq8-FtiJCLJCegVzhztIqkQFNIFNnQCsAqMYZBLEhySVpxA4Vh0c-BodVQWwdm61d7lG2MEKbX93ENoNWl-Y-Y9ijgw5E4_z1nPKyp9nBYtxXVqIU1GJ8xAVss7TDNGWun7skyCNZNbJfktqHz94KRUMyd4oWbcpK7mK-XzKFb8tNR9InmMolm40]--></g></svg>